<?xml version="1.0" encoding="UTF-8" standalone="no"?>
<!-- Created with Inkscape (http://www.inkscape.org/) -->

<svg
   xmlns:dc="http://purl.org/dc/elements/1.1/"
   xmlns:cc="http://creativecommons.org/ns#"
   xmlns:rdf="http://www.w3.org/1999/02/22-rdf-syntax-ns#"
   xmlns:svg="http://www.w3.org/2000/svg"
   xmlns="http://www.w3.org/2000/svg"
   xmlns:sodipodi="http://sodipodi.sourceforge.net/DTD/sodipodi-0.dtd"
   xmlns:inkscape="http://www.inkscape.org/namespaces/inkscape"
   width="64"
   height="64"
   viewBox="0 0 16.933333 16.933334"
   version="1.1"
   id="svg8"
   inkscape:version="0.92.4 5da689c313, 2019-01-14"
   sodipodi:docname="nocturnal.svg">
  <defs
     id="defs2" />
  <sodipodi:namedview
     id="base"
     pagecolor="#ffffff"
     bordercolor="#666666"
     borderopacity="1.0"
     inkscape:pageopacity="0.0"
     inkscape:pageshadow="2"
     inkscape:zoom="5.6"
     inkscape:cx="-7.7664399"
     inkscape:cy="24.916512"
     inkscape:document-units="mm"
     inkscape:current-layer="layer1"
     showgrid="false"
     units="px" />
  <metadata
     id="metadata5">
    <rdf:RDF>
      <cc:Work
         rdf:about="">
        <dc:format>image/svg+xml</dc:format>
        <dc:type
           rdf:resource="http://purl.org/dc/dcmitype/StillImage" />
        <dc:title></dc:title>
      </cc:Work>
    </rdf:RDF>
  </metadata>
  <g
     inkscape:label="Layer 1"
     id="layer1"
     inkscape:groupmode="layer"
     sodipodi:insensitive="true"
     transform="translate(0,-280.06665)">
    <path
       style="fill:#000000;stroke-width:0.0438082"
       d="m 6.5450752,296.9814 c -0.581346,-0.10903 -1.089766,-0.71699 -1.135627,-1.35797 l -0.02112,-0.29512 -0.399575,-0.25815 c -1.927315,-1.24515 -2.998638,-2.95494 -3.122776,-4.98381 -0.04557,-0.74477 0.139093,-2.06286 0.31646,-2.25885 0.201481,-0.22263 0.708124,0.0355 1.317217,0.67102 0.70002,0.73044 1.122284,1.57667 1.335439,2.67625 0.119402,0.61596 0.124899,0.87338 0.02109,0.98812 -0.198448,0.21934 -0.551764,0.0372 -0.551764,-0.28449 0,-0.23471 -0.157587,-0.98101 -0.286548,-1.35703 -0.145973,-0.42562 -0.280036,-0.69875 -0.525178,-1.06997 -0.186291,-0.2821 -0.759392,-0.87616 -0.845245,-0.87616 -0.05194,0 -0.08044,0.1174 -0.138254,0.56951 -0.160495,1.25509 0.129797,2.47654 0.843338,3.54846 0.313586,0.47108 1.180003,1.31263 1.74815,1.69796 0.257237,0.17447 0.477439,0.31722 0.489338,0.31722 0.0119,0 0.136566,-0.11482 0.277037,-0.25515 0.539891,-0.53934 1.27573,-0.54257 1.810367,-0.008 0.180256,0.18026 0.438206,0.65095 0.438273,0.79973 3.1e-5,0.0666 0.04594,0.0767 0.350501,0.0767 0.304558,0 0.35047,-0.0101 0.3505,-0.0767 8.7e-5,-0.14878 0.258017,-0.61947 0.438273,-0.79973 0.534637,-0.53463 1.2704768,-0.53141 1.8103668,0.008 0.140471,0.14033 0.265138,0.25515 0.277037,0.25515 0.0119,0 0.232101,-0.14275 0.489338,-0.31722 0.568147,-0.38533 1.434565,-1.22688 1.74815,-1.69796 0.71354,-1.07192 1.003833,-2.29337 0.843339,-3.54846 -0.05781,-0.45211 -0.08631,-0.56951 -0.138255,-0.56951 -0.08556,0 -0.64518,0.58063 -0.838171,0.86964 -0.250765,0.37553 -0.384863,0.64674 -0.532252,1.07649 -0.128961,0.37602 -0.286548,1.12232 -0.286548,1.35703 0,0.20831 -0.14527,0.37673 -0.324951,0.37673 -0.320031,0 -0.366804,-0.24937 -0.204152,-1.08843 0.220855,-1.13932 0.6493,-1.97224 1.402384,-2.72633 0.6124,-0.61321 1.052785,-0.82936 1.248706,-0.61287 0.09916,0.10958 0.225674,0.68119 0.291349,1.31641 0.244002,2.36002 -0.866685,4.48491 -3.097665,5.92625 l -0.399575,0.25815 -0.02094,0.29259 c -0.05185,0.7246 -0.671989,1.36899 -1.32311,1.37484 -0.5399638,0.005 -1.0527758,-0.34561 -1.2796588,-0.87454 l -0.06107,-0.14238 h -0.393087 -0.393098 l -0.06107,0.14238 c -0.255546,0.59575 -0.890803,0.96825 -1.46696,0.8602 z m 0.64033,-0.72322 c 0.417124,-0.30391 0.419725,-1.17309 0.0044,-1.47538 -0.146869,-0.1069 -0.46378,-0.14349 -0.665695,-0.0769 -0.599034,0.1977 -0.680722,1.24294 -0.123102,1.57517 0.204049,0.12158 0.601998,0.10993 0.784382,-0.0229 z m 3.3309228,0.0318 c 0.302093,-0.15411 0.471081,-0.64191 0.362209,-1.04554 -0.06401,-0.23731 -0.269043,-0.47211 -0.470251,-0.53851 -0.201915,-0.0666 -0.5188258,-0.03 -0.6656948,0.0769 -0.364221,0.26511 -0.4209,1.02927 -0.102845,1.38659 0.184188,0.20693 0.5962498,0.26363 0.8765818,0.12061 z m -3.2767518,-3.23365 c -0.194318,-0.0993 -0.326494,-0.35319 -0.288726,-0.55451 0.01483,-0.0791 0.08716,-0.20142 0.160724,-0.2719 0.110778,-0.10613 0.170744,-0.12814 0.349077,-0.12814 0.18228,0 0.236117,0.0208 0.350838,0.13551 0.234649,0.23465 0.214023,0.57778 -0.04622,0.76878 -0.166723,0.12237 -0.350311,0.13991 -0.525698,0.0503 z m 2.026992,0.0117 c -0.333817,-0.14915 -0.407419,-0.56896 -0.145645,-0.83073 0.11472,-0.11472 0.168557,-0.13552 0.350837,-0.13552 0.178333,0 0.238299,0.022 0.349078,0.12815 0.4112688,0.39402 -0.03566,1.06981 -0.55427,0.8381 z m -2.986669,-1.65976 c -0.215216,-0.0739 -0.333631,-0.25421 -0.32829,-0.49992 0.0038,-0.17278 0.02692,-0.22194 0.163638,-0.34723 0.444156,-0.40704 1.089039,0.11552 0.776044,0.62884 -0.134951,0.22133 -0.364194,0.30318 -0.611392,0.21831 z m 2.012591,0 c -0.171483,-0.0579 -0.351983,-0.29187 -0.351983,-0.45631 0,-0.16624 0.119757,-0.37959 0.259364,-0.46206 0.258926,-0.15295 0.598881,-0.0523 0.725613,0.21471 0.0886,0.18671 0.08348,0.31725 -0.01902,0.48535 -0.135194,0.22173 -0.363414,0.30287 -0.613978,0.21831 z m 2.0151768,0 c -0.08771,-0.0296 -0.194074,-0.11409 -0.251897,-0.20008 -0.3377738,-0.50237 0.296201,-1.05783 0.751293,-0.65826 0.43063,0.3781 0.04444,1.04187 -0.499396,0.85834 z m -2.0557358,-2.07736 c -0.08971,-0.0844 -1.300073,-1.64366 -1.427651,-1.83918 -0.0037,-0.006 -0.134468,0.0577 -0.290695,0.14065 -1.115246,0.5922 -2.47365,0.23597 -3.210063,-0.84181 -0.583467,-0.85393 -0.589617,-1.89944 -0.01622,-2.75674 0.915176,-1.36831 2.714607,-1.54945 3.866557,-0.38923 0.3137,0.31595 0.515895,0.64409 0.662689,1.0755 0.06169,0.18129 0.08154,0.36357 0.08017,0.73625 -0.0017,0.47702 0.0015,0.4945 0.08765,0.47362 0.222626,-0.054 0.632653,-0.0726 0.814044,-0.037 l 0.198881,0.039 -0.0017,-0.48546 c -0.0013,-0.36288 0.01899,-0.54631 0.08028,-0.72641 0.29858,-0.87748 1.0023858,-1.55279 1.8478008,-1.77299 0.988662,-0.25752 2.077515,0.18377 2.681444,1.08672 0.574408,0.85881 0.567346,1.90267 -0.01867,2.76034 -0.732316,1.07179 -2.096422,1.42825 -3.207603,0.83821 -0.156228,-0.083 -0.287041,-0.14625 -0.290695,-0.14065 -0.0037,0.006 -0.2975628,0.3946 -0.6531278,0.86445 -0.695373,0.91886 -0.854583,1.0952 -0.988799,1.0952 -0.04743,0 -0.143852,-0.0542 -0.214274,-0.12047 z m 0.828747,-1.52217 0.564523,-0.74252 -0.09945,-0.12896 c -0.0547,-0.0709 -0.206617,-0.18974 -0.337601,-0.26404 -0.224268,-0.12721 -0.264969,-0.13508 -0.698138,-0.13508 -0.424293,0 -0.482394,0.0106 -0.74876,0.13683 -0.163552,0.0775 -0.328443,0.19254 -0.380256,0.2653 l -0.09148,0.12848 0.573157,0.75464 c 0.315237,0.41506 0.59123,0.74863 0.613319,0.74126 0.02209,-0.007 0.294197,-0.34752 0.604686,-0.75591 z m -3.18512,-0.56946 c 0.345859,-0.0901 0.574245,-0.21423 0.824133,-0.44797 0.201112,-0.18812 0.243202,-0.24898 0.436216,-0.63073 0.128782,-0.25472 0.183175,-0.70642 0.127936,-1.06244 -0.175745,-1.1327 -1.259646,-1.83102 -2.386474,-1.53752 -0.558039,0.14535 -0.969034,0.48837 -1.220057,1.01827 -0.132718,0.28016 -0.139529,0.3202 -0.139529,0.82023 0,0.50004 0.0068,0.54008 0.139529,0.82024 0.397765,0.83966 1.306377,1.25743 2.218246,1.01992 z m -0.763968,-1.40221 c -0.11669,-0.0634 -0.257657,-0.30302 -0.257657,-0.43795 0,-0.13991 0.143142,-0.37617 0.266582,-0.44001 0.161583,-0.0836 0.433633,-0.0813 0.556277,0.005 0.123031,0.0862 0.228538,0.28719 0.228538,0.43542 0,0.38086 -0.445985,0.62693 -0.79374,0.43795 z m 6.9034518,1.40056 c 0.558039,-0.14535 0.969034,-0.48837 1.220058,-1.01827 0.132717,-0.28016 0.139528,-0.3202 0.139528,-0.82024 0,-0.50003 -0.0068,-0.54007 -0.139528,-0.82023 -0.251024,-0.5299 -0.662019,-0.87292 -1.220058,-1.01827 -1.123796,-0.29271 -2.2053598,0.40099 -2.3857508,1.5302 -0.221019,1.38352 1.0219778,2.50202 2.3857508,2.14681 z m -0.775513,-1.40329 c -0.13879,-0.0753 -0.252448,-0.27125 -0.252448,-0.43522 0,-0.14823 0.105507,-0.34924 0.228538,-0.43542 0.122644,-0.0859 0.394694,-0.0882 0.556278,-0.005 0.123439,0.0638 0.266581,0.3001 0.266581,0.44002 0,0.13991 -0.143142,0.37618 -0.266581,0.44001 -0.156453,0.0809 -0.378104,0.0789 -0.532368,-0.005 z m 2.810168,-2.7474 c -0.03832,-0.0294 -0.143844,-0.11871 -0.234503,-0.19846 l -0.164831,-0.14499 0.182397,-0.26003 c 0.202156,-0.28819 0.396562,-0.69766 0.483026,-1.01738 0.06339,-0.23439 0.03878,-0.29815 -0.07568,-0.19613 -0.09799,0.0873 -0.555467,0.31912 -0.805131,0.40791 -0.587328,0.20889 -0.5381,0.20645 -4.5556188,0.22601 -3.85239,0.0188 -4.616938,-0.002 -5.142535,-0.14022 -0.288987,-0.076 -0.831106,-0.31933 -1.035488,-0.46486 -0.07176,-0.0511 -0.141916,-0.0815 -0.155901,-0.0675 -0.07618,0.0762 0.246618,0.87717 0.490041,1.216 0.08456,0.1177 0.153746,0.23019 0.153746,0.24997 0,0.0198 -0.10258,0.1194 -0.227954,0.22139 l -0.227955,0.18543 -0.07892,-0.10102 c -0.276605,-0.35407 -0.595014,-1.03694 -0.713609,-1.53044 -0.09799,-0.40774 -0.129402,-1.08446 -0.05664,-1.22012 0.142961,-0.26656 0.441855,-0.24325 0.635628,0.0496 0.117262,0.17719 0.529297,0.51196 0.800279,0.65021 0.08524,0.0435 0.302603,0.12541 0.48302,0.18206 l 0.328031,0.103 h 4.337012 4.3370108 l 0.353901,-0.12001 c 0.194645,-0.066 0.477404,-0.19983 0.628353,-0.29739 0.255815,-0.16534 0.704362,-0.58466 0.704362,-0.65846 0,-0.0722 0.250869,-0.12102 0.355084,-0.0691 0.182707,0.0911 0.222031,0.22865 0.195802,0.68493 -0.03943,0.68588 -0.216674,1.26541 -0.565289,1.8483 -0.263185,0.44005 -0.343039,0.52618 -0.427637,0.46128 z"
       id="path983"
       inkscape:connector-curvature="0" />
  </g>
</svg>
